<mxfile host="app.diagrams.net" modified="2024-03-25T02:26:33.968Z" agent="Mozilla/5.0 (Windows NT 10.0; Win64; x64) AppleWebKit/537.36 (KHTML, like Gecko) Chrome/122.0.0.0 Safari/537.36 Edg/122.0.0.0" etag="Q4DIUCfPRGI_Uc8qigKa" version="24.1.0" type="github">
  <diagram id="6a731a19-8d31-9384-78a2-239565b7b9f0" name="Page-1">
    <mxGraphModel dx="1183" dy="841" grid="1" gridSize="10" guides="1" tooltips="1" connect="1" arrows="1" fold="1" page="1" pageScale="1" pageWidth="1169" pageHeight="827" background="none" math="0" shadow="0">
      <root>
        <mxCell id="0" />
        <mxCell id="1" parent="0" />
        <mxCell id="KKMUDHUGhAtzCMUaufeO-55" value="" style="ellipse;whiteSpace=wrap;html=1;aspect=fixed;fillColor=#050505;strokeWidth=2;spacing=2;fontSize=20;fontColor=default;labelBackgroundColor=none;horizontal=1;" vertex="1" parent="1">
          <mxGeometry x="20" y="705" width="30" height="30" as="geometry" />
        </mxCell>
        <mxCell id="KKMUDHUGhAtzCMUaufeO-83" style="edgeStyle=orthogonalEdgeStyle;rounded=0;orthogonalLoop=1;jettySize=auto;html=1;exitX=1;exitY=0.5;exitDx=0;exitDy=0;entryX=0;entryY=0.5;entryDx=0;entryDy=0;fontSize=20;strokeWidth=2;" edge="1" parent="1" source="KKMUDHUGhAtzCMUaufeO-57" target="KKMUDHUGhAtzCMUaufeO-64">
          <mxGeometry relative="1" as="geometry" />
        </mxCell>
        <mxCell id="KKMUDHUGhAtzCMUaufeO-84" value="是" style="edgeLabel;html=1;align=center;verticalAlign=middle;resizable=0;points=[];fontSize=20;" vertex="1" connectable="0" parent="KKMUDHUGhAtzCMUaufeO-83">
          <mxGeometry x="-0.1152" y="-2" relative="1" as="geometry">
            <mxPoint as="offset" />
          </mxGeometry>
        </mxCell>
        <mxCell id="KKMUDHUGhAtzCMUaufeO-57" value="&lt;font style=&quot;font-size: 20px;&quot;&gt;用户是否登录&lt;/font&gt;" style="rhombus;whiteSpace=wrap;html=1;strokeWidth=2;spacing=2;fontSize=20;fontColor=default;labelBackgroundColor=none;horizontal=1;" vertex="1" parent="1">
          <mxGeometry x="70.53" y="680" width="179.47" height="80" as="geometry" />
        </mxCell>
        <mxCell id="KKMUDHUGhAtzCMUaufeO-58" value="" style="group;strokeWidth=2;spacing=2;fontSize=20;fontColor=default;labelBackgroundColor=none;horizontal=1;" vertex="1" connectable="0" parent="1">
          <mxGeometry x="100.25999999999999" y="855" width="120" height="60" as="geometry" />
        </mxCell>
        <mxCell id="KKMUDHUGhAtzCMUaufeO-59" value="&lt;font style=&quot;font-size: 20px;&quot;&gt;用户登录&lt;/font&gt;" style="rounded=0;whiteSpace=wrap;html=1;strokeWidth=2;spacing=2;fontSize=20;fontColor=default;labelBackgroundColor=none;horizontal=1;" vertex="1" parent="KKMUDHUGhAtzCMUaufeO-58">
          <mxGeometry width="120" height="60" as="geometry" />
        </mxCell>
        <mxCell id="KKMUDHUGhAtzCMUaufeO-60" value="" style="endArrow=classic;html=1;rounded=0;strokeWidth=2;spacing=2;fontSize=20;fontColor=default;labelBackgroundColor=none;horizontal=1;entryX=0.5;entryY=0;entryDx=0;entryDy=0;" edge="1" parent="1" target="KKMUDHUGhAtzCMUaufeO-59">
          <mxGeometry width="50" height="50" relative="1" as="geometry">
            <mxPoint x="159.6" y="760" as="sourcePoint" />
            <mxPoint x="160" y="830" as="targetPoint" />
          </mxGeometry>
        </mxCell>
        <mxCell id="KKMUDHUGhAtzCMUaufeO-61" value="否" style="edgeLabel;html=1;align=center;verticalAlign=middle;resizable=0;points=[];fontSize=20;" vertex="1" connectable="0" parent="KKMUDHUGhAtzCMUaufeO-60">
          <mxGeometry x="-0.1623" relative="1" as="geometry">
            <mxPoint as="offset" />
          </mxGeometry>
        </mxCell>
        <mxCell id="KKMUDHUGhAtzCMUaufeO-62" value="" style="endArrow=classic;html=1;rounded=0;exitX=1;exitY=0.5;exitDx=0;exitDy=0;entryX=0;entryY=0.5;entryDx=0;entryDy=0;strokeWidth=2;spacing=2;fontSize=20;fontColor=default;labelBackgroundColor=none;horizontal=1;" edge="1" parent="1" source="KKMUDHUGhAtzCMUaufeO-55" target="KKMUDHUGhAtzCMUaufeO-57">
          <mxGeometry width="50" height="50" relative="1" as="geometry">
            <mxPoint x="340.53" y="870" as="sourcePoint" />
            <mxPoint x="390.53" y="820" as="targetPoint" />
          </mxGeometry>
        </mxCell>
        <mxCell id="KKMUDHUGhAtzCMUaufeO-85" style="edgeStyle=orthogonalEdgeStyle;rounded=0;orthogonalLoop=1;jettySize=auto;html=1;exitX=1;exitY=0.5;exitDx=0;exitDy=0;entryX=0;entryY=0.5;entryDx=0;entryDy=0;fontSize=20;strokeWidth=2;" edge="1" parent="1" source="KKMUDHUGhAtzCMUaufeO-64" target="KKMUDHUGhAtzCMUaufeO-65">
          <mxGeometry relative="1" as="geometry" />
        </mxCell>
        <mxCell id="KKMUDHUGhAtzCMUaufeO-86" style="edgeStyle=orthogonalEdgeStyle;rounded=0;orthogonalLoop=1;jettySize=auto;html=1;exitX=1;exitY=0.5;exitDx=0;exitDy=0;entryX=0;entryY=0.5;entryDx=0;entryDy=0;fontSize=20;strokeWidth=2;" edge="1" parent="1" source="KKMUDHUGhAtzCMUaufeO-64" target="KKMUDHUGhAtzCMUaufeO-67">
          <mxGeometry relative="1" as="geometry" />
        </mxCell>
        <mxCell id="KKMUDHUGhAtzCMUaufeO-87" style="edgeStyle=orthogonalEdgeStyle;rounded=0;orthogonalLoop=1;jettySize=auto;html=1;exitX=1;exitY=0.5;exitDx=0;exitDy=0;entryX=0;entryY=0.5;entryDx=0;entryDy=0;fontSize=20;strokeWidth=2;" edge="1" parent="1" source="KKMUDHUGhAtzCMUaufeO-64" target="KKMUDHUGhAtzCMUaufeO-66">
          <mxGeometry relative="1" as="geometry">
            <Array as="points">
              <mxPoint x="490" y="720" />
              <mxPoint x="490" y="910" />
            </Array>
          </mxGeometry>
        </mxCell>
        <mxCell id="KKMUDHUGhAtzCMUaufeO-64" value="选择论文" style="rounded=0;whiteSpace=wrap;html=1;fontSize=20;" vertex="1" parent="1">
          <mxGeometry x="340" y="690" width="120" height="60" as="geometry" />
        </mxCell>
        <mxCell id="KKMUDHUGhAtzCMUaufeO-96" style="edgeStyle=orthogonalEdgeStyle;rounded=0;orthogonalLoop=1;jettySize=auto;html=1;exitX=1;exitY=0.5;exitDx=0;exitDy=0;entryX=0;entryY=0.5;entryDx=0;entryDy=0;fontSize=20;strokeWidth=2;" edge="1" parent="1" source="KKMUDHUGhAtzCMUaufeO-65" target="KKMUDHUGhAtzCMUaufeO-72">
          <mxGeometry relative="1" as="geometry" />
        </mxCell>
        <mxCell id="KKMUDHUGhAtzCMUaufeO-65" value="编辑解读文章" style="rounded=0;whiteSpace=wrap;html=1;fontSize=20;" vertex="1" parent="1">
          <mxGeometry x="580" y="690" width="120" height="60" as="geometry" />
        </mxCell>
        <mxCell id="KKMUDHUGhAtzCMUaufeO-99" style="edgeStyle=orthogonalEdgeStyle;rounded=0;orthogonalLoop=1;jettySize=auto;html=1;exitX=1;exitY=0.5;exitDx=0;exitDy=0;entryX=0;entryY=0.5;entryDx=0;entryDy=0;fontSize=20;strokeWidth=2;" edge="1" parent="1" source="KKMUDHUGhAtzCMUaufeO-66" target="KKMUDHUGhAtzCMUaufeO-77">
          <mxGeometry relative="1" as="geometry" />
        </mxCell>
        <mxCell id="KKMUDHUGhAtzCMUaufeO-107" style="edgeStyle=orthogonalEdgeStyle;rounded=0;orthogonalLoop=1;jettySize=auto;html=1;exitX=1;exitY=0.5;exitDx=0;exitDy=0;entryX=0;entryY=0.5;entryDx=0;entryDy=0;fontSize=20;strokeWidth=2;" edge="1" parent="1" source="KKMUDHUGhAtzCMUaufeO-66" target="KKMUDHUGhAtzCMUaufeO-78">
          <mxGeometry relative="1" as="geometry" />
        </mxCell>
        <mxCell id="KKMUDHUGhAtzCMUaufeO-66" value="选择批注语句" style="rounded=0;whiteSpace=wrap;html=1;fontSize=20;" vertex="1" parent="1">
          <mxGeometry x="580" y="880" width="120" height="60" as="geometry" />
        </mxCell>
        <mxCell id="KKMUDHUGhAtzCMUaufeO-88" style="edgeStyle=orthogonalEdgeStyle;rounded=0;orthogonalLoop=1;jettySize=auto;html=1;exitX=0.5;exitY=1;exitDx=0;exitDy=0;entryX=0.5;entryY=0;entryDx=0;entryDy=0;fontSize=20;strokeWidth=2;" edge="1" parent="1" source="KKMUDHUGhAtzCMUaufeO-67" target="KKMUDHUGhAtzCMUaufeO-65">
          <mxGeometry relative="1" as="geometry" />
        </mxCell>
        <mxCell id="KKMUDHUGhAtzCMUaufeO-89" value="否" style="edgeLabel;html=1;align=center;verticalAlign=middle;resizable=0;points=[];fontSize=20;" vertex="1" connectable="0" parent="KKMUDHUGhAtzCMUaufeO-88">
          <mxGeometry x="-0.1625" y="-8" relative="1" as="geometry">
            <mxPoint as="offset" />
          </mxGeometry>
        </mxCell>
        <mxCell id="KKMUDHUGhAtzCMUaufeO-90" style="edgeStyle=orthogonalEdgeStyle;rounded=0;orthogonalLoop=1;jettySize=auto;html=1;exitX=1;exitY=0.5;exitDx=0;exitDy=0;entryX=0;entryY=0.5;entryDx=0;entryDy=0;fontSize=20;strokeWidth=2;" edge="1" parent="1" source="KKMUDHUGhAtzCMUaufeO-67" target="KKMUDHUGhAtzCMUaufeO-68">
          <mxGeometry relative="1" as="geometry" />
        </mxCell>
        <mxCell id="KKMUDHUGhAtzCMUaufeO-91" value="是" style="edgeLabel;html=1;align=center;verticalAlign=middle;resizable=0;points=[];fontSize=20;" vertex="1" connectable="0" parent="KKMUDHUGhAtzCMUaufeO-90">
          <mxGeometry x="-0.1843" y="-5" relative="1" as="geometry">
            <mxPoint as="offset" />
          </mxGeometry>
        </mxCell>
        <mxCell id="KKMUDHUGhAtzCMUaufeO-67" value="&lt;font style=&quot;font-size: 20px;&quot;&gt;是否存在相关解读文章&lt;/font&gt;" style="rhombus;whiteSpace=wrap;html=1;strokeWidth=2;spacing=2;fontSize=20;fontColor=default;labelBackgroundColor=none;horizontal=1;" vertex="1" parent="1">
          <mxGeometry x="520" y="450" width="240" height="120" as="geometry" />
        </mxCell>
        <mxCell id="KKMUDHUGhAtzCMUaufeO-92" style="edgeStyle=orthogonalEdgeStyle;rounded=0;orthogonalLoop=1;jettySize=auto;html=1;exitX=1;exitY=0.5;exitDx=0;exitDy=0;entryX=0;entryY=0.5;entryDx=0;entryDy=0;fontSize=20;strokeWidth=2;" edge="1" parent="1" source="KKMUDHUGhAtzCMUaufeO-68" target="KKMUDHUGhAtzCMUaufeO-69">
          <mxGeometry relative="1" as="geometry" />
        </mxCell>
        <mxCell id="KKMUDHUGhAtzCMUaufeO-68" value="呈现解读文章列表" style="rounded=0;whiteSpace=wrap;html=1;fontSize=20;" vertex="1" parent="1">
          <mxGeometry x="840" y="484.5" width="110" height="50" as="geometry" />
        </mxCell>
        <mxCell id="KKMUDHUGhAtzCMUaufeO-93" style="edgeStyle=orthogonalEdgeStyle;rounded=0;orthogonalLoop=1;jettySize=auto;html=1;exitX=1;exitY=0.5;exitDx=0;exitDy=0;entryX=0;entryY=0.5;entryDx=0;entryDy=0;fontSize=20;strokeWidth=2;" edge="1" parent="1" source="KKMUDHUGhAtzCMUaufeO-69" target="KKMUDHUGhAtzCMUaufeO-70">
          <mxGeometry relative="1" as="geometry" />
        </mxCell>
        <mxCell id="KKMUDHUGhAtzCMUaufeO-69" value="选择论文解读文章" style="rounded=0;whiteSpace=wrap;html=1;fontSize=20;" vertex="1" parent="1">
          <mxGeometry x="1010" y="480.5" width="120" height="60" as="geometry" />
        </mxCell>
        <mxCell id="KKMUDHUGhAtzCMUaufeO-94" style="edgeStyle=orthogonalEdgeStyle;rounded=0;orthogonalLoop=1;jettySize=auto;html=1;exitX=1;exitY=0.5;exitDx=0;exitDy=0;entryX=0;entryY=0.5;entryDx=0;entryDy=0;fontSize=20;strokeWidth=2;" edge="1" parent="1" source="KKMUDHUGhAtzCMUaufeO-70" target="KKMUDHUGhAtzCMUaufeO-71">
          <mxGeometry relative="1" as="geometry" />
        </mxCell>
        <mxCell id="KKMUDHUGhAtzCMUaufeO-70" value="查看论文解读" style="rounded=0;whiteSpace=wrap;html=1;fontSize=20;" vertex="1" parent="1">
          <mxGeometry x="1180" y="481.5" width="120" height="60" as="geometry" />
        </mxCell>
        <mxCell id="KKMUDHUGhAtzCMUaufeO-95" style="edgeStyle=orthogonalEdgeStyle;rounded=0;orthogonalLoop=1;jettySize=auto;html=1;exitX=0.5;exitY=1;exitDx=0;exitDy=0;entryX=0.5;entryY=0;entryDx=0;entryDy=0;fontSize=20;strokeWidth=2;" edge="1" parent="1" source="KKMUDHUGhAtzCMUaufeO-71" target="KKMUDHUGhAtzCMUaufeO-74">
          <mxGeometry relative="1" as="geometry" />
        </mxCell>
        <mxCell id="KKMUDHUGhAtzCMUaufeO-71" value="评论点赞转发" style="rounded=0;whiteSpace=wrap;html=1;fontSize=20;" vertex="1" parent="1">
          <mxGeometry x="1380" y="481.5" width="120" height="60" as="geometry" />
        </mxCell>
        <mxCell id="KKMUDHUGhAtzCMUaufeO-97" style="edgeStyle=orthogonalEdgeStyle;rounded=0;orthogonalLoop=1;jettySize=auto;html=1;exitX=1;exitY=0.5;exitDx=0;exitDy=0;entryX=0;entryY=0.5;entryDx=0;entryDy=0;fontSize=20;strokeWidth=2;" edge="1" parent="1" source="KKMUDHUGhAtzCMUaufeO-72" target="KKMUDHUGhAtzCMUaufeO-73">
          <mxGeometry relative="1" as="geometry" />
        </mxCell>
        <mxCell id="KKMUDHUGhAtzCMUaufeO-72" value="点击发布" style="rounded=0;whiteSpace=wrap;html=1;fontSize=20;" vertex="1" parent="1">
          <mxGeometry x="830" y="695" width="110" height="50" as="geometry" />
        </mxCell>
        <mxCell id="KKMUDHUGhAtzCMUaufeO-98" style="edgeStyle=orthogonalEdgeStyle;rounded=0;orthogonalLoop=1;jettySize=auto;html=1;exitX=1;exitY=0.5;exitDx=0;exitDy=0;entryX=0;entryY=0.5;entryDx=0;entryDy=0;fontSize=20;strokeWidth=2;" edge="1" parent="1" source="KKMUDHUGhAtzCMUaufeO-73" target="KKMUDHUGhAtzCMUaufeO-74">
          <mxGeometry relative="1" as="geometry" />
        </mxCell>
        <mxCell id="KKMUDHUGhAtzCMUaufeO-73" value="发布成功" style="rounded=0;whiteSpace=wrap;html=1;fontSize=20;" vertex="1" parent="1">
          <mxGeometry x="1035" y="695" width="110" height="50" as="geometry" />
        </mxCell>
        <mxCell id="KKMUDHUGhAtzCMUaufeO-74" value="结束" style="rounded=1;whiteSpace=wrap;html=1;fontSize=20;" vertex="1" parent="1">
          <mxGeometry x="1380" y="690" width="120" height="60" as="geometry" />
        </mxCell>
        <mxCell id="KKMUDHUGhAtzCMUaufeO-102" style="edgeStyle=orthogonalEdgeStyle;rounded=0;orthogonalLoop=1;jettySize=auto;html=1;exitX=1;exitY=0.5;exitDx=0;exitDy=0;entryX=0;entryY=0.5;entryDx=0;entryDy=0;fontSize=20;strokeWidth=2;" edge="1" parent="1" source="KKMUDHUGhAtzCMUaufeO-75" target="KKMUDHUGhAtzCMUaufeO-81">
          <mxGeometry relative="1" as="geometry" />
        </mxCell>
        <mxCell id="KKMUDHUGhAtzCMUaufeO-75" value="输入批注内容" style="rounded=0;whiteSpace=wrap;html=1;fontSize=20;" vertex="1" parent="1">
          <mxGeometry x="1090" y="880" width="120" height="60" as="geometry" />
        </mxCell>
        <mxCell id="KKMUDHUGhAtzCMUaufeO-100" style="edgeStyle=orthogonalEdgeStyle;rounded=0;orthogonalLoop=1;jettySize=auto;html=1;exitX=1;exitY=0.5;exitDx=0;exitDy=0;entryX=0;entryY=0.5;entryDx=0;entryDy=0;fontSize=20;strokeWidth=2;" edge="1" parent="1" source="KKMUDHUGhAtzCMUaufeO-77" target="KKMUDHUGhAtzCMUaufeO-75">
          <mxGeometry relative="1" as="geometry" />
        </mxCell>
        <mxCell id="KKMUDHUGhAtzCMUaufeO-101" value="是" style="edgeLabel;html=1;align=center;verticalAlign=middle;resizable=0;points=[];fontSize=20;" vertex="1" connectable="0" parent="KKMUDHUGhAtzCMUaufeO-100">
          <mxGeometry x="-0.0265" y="-3" relative="1" as="geometry">
            <mxPoint x="-3" y="3" as="offset" />
          </mxGeometry>
        </mxCell>
        <mxCell id="KKMUDHUGhAtzCMUaufeO-108" style="edgeStyle=orthogonalEdgeStyle;rounded=0;orthogonalLoop=1;jettySize=auto;html=1;exitX=0.5;exitY=0;exitDx=0;exitDy=0;entryX=0.5;entryY=0;entryDx=0;entryDy=0;fontSize=20;strokeWidth=2;" edge="1" parent="1" source="KKMUDHUGhAtzCMUaufeO-77" target="KKMUDHUGhAtzCMUaufeO-66">
          <mxGeometry relative="1" as="geometry" />
        </mxCell>
        <mxCell id="KKMUDHUGhAtzCMUaufeO-109" value="否" style="edgeLabel;html=1;align=center;verticalAlign=middle;resizable=0;points=[];fontSize=20;" vertex="1" connectable="0" parent="KKMUDHUGhAtzCMUaufeO-108">
          <mxGeometry x="-0.0544" y="-2" relative="1" as="geometry">
            <mxPoint x="-1" as="offset" />
          </mxGeometry>
        </mxCell>
        <mxCell id="KKMUDHUGhAtzCMUaufeO-77" value="&lt;font style=&quot;font-size: 20px;&quot;&gt;选择范围是否符合规范&lt;/font&gt;" style="rhombus;whiteSpace=wrap;html=1;strokeWidth=2;spacing=2;fontSize=20;fontColor=default;labelBackgroundColor=none;horizontal=1;" vertex="1" parent="1">
          <mxGeometry x="788" y="851" width="240" height="120" as="geometry" />
        </mxCell>
        <mxCell id="KKMUDHUGhAtzCMUaufeO-106" style="edgeStyle=orthogonalEdgeStyle;rounded=0;orthogonalLoop=1;jettySize=auto;html=1;exitX=1;exitY=0.5;exitDx=0;exitDy=0;entryX=0;entryY=0.5;entryDx=0;entryDy=0;fontSize=20;strokeWidth=2;" edge="1" parent="1" source="KKMUDHUGhAtzCMUaufeO-78" target="KKMUDHUGhAtzCMUaufeO-80">
          <mxGeometry relative="1" as="geometry" />
        </mxCell>
        <mxCell id="KKMUDHUGhAtzCMUaufeO-112" value="是" style="edgeLabel;html=1;align=center;verticalAlign=middle;resizable=0;points=[];fontSize=20;" vertex="1" connectable="0" parent="KKMUDHUGhAtzCMUaufeO-106">
          <mxGeometry x="-0.0597" y="2" relative="1" as="geometry">
            <mxPoint as="offset" />
          </mxGeometry>
        </mxCell>
        <mxCell id="KKMUDHUGhAtzCMUaufeO-110" style="edgeStyle=orthogonalEdgeStyle;rounded=0;orthogonalLoop=1;jettySize=auto;html=1;exitX=0.5;exitY=1;exitDx=0;exitDy=0;entryX=0.5;entryY=1;entryDx=0;entryDy=0;fontSize=20;strokeWidth=2;" edge="1" parent="1" source="KKMUDHUGhAtzCMUaufeO-78" target="KKMUDHUGhAtzCMUaufeO-66">
          <mxGeometry relative="1" as="geometry" />
        </mxCell>
        <mxCell id="KKMUDHUGhAtzCMUaufeO-111" value="否" style="edgeLabel;html=1;align=center;verticalAlign=middle;resizable=0;points=[];fontSize=20;" vertex="1" connectable="0" parent="KKMUDHUGhAtzCMUaufeO-110">
          <mxGeometry x="-0.2318" y="-6" relative="1" as="geometry">
            <mxPoint as="offset" />
          </mxGeometry>
        </mxCell>
        <mxCell id="KKMUDHUGhAtzCMUaufeO-78" value="&lt;font style=&quot;font-size: 20px;&quot;&gt;是否存在相关批注&lt;/font&gt;" style="rhombus;whiteSpace=wrap;html=1;strokeWidth=2;spacing=2;fontSize=20;fontColor=default;labelBackgroundColor=none;horizontal=1;" vertex="1" parent="1">
          <mxGeometry x="795" y="1065" width="240" height="120" as="geometry" />
        </mxCell>
        <mxCell id="KKMUDHUGhAtzCMUaufeO-105" style="edgeStyle=orthogonalEdgeStyle;rounded=0;orthogonalLoop=1;jettySize=auto;html=1;exitX=1;exitY=0.5;exitDx=0;exitDy=0;entryX=0;entryY=0.5;entryDx=0;entryDy=0;fontSize=20;strokeWidth=2;" edge="1" parent="1" source="KKMUDHUGhAtzCMUaufeO-80" target="KKMUDHUGhAtzCMUaufeO-82">
          <mxGeometry relative="1" as="geometry" />
        </mxCell>
        <mxCell id="KKMUDHUGhAtzCMUaufeO-80" value="查看批注" style="rounded=0;whiteSpace=wrap;html=1;fontSize=20;" vertex="1" parent="1">
          <mxGeometry x="1088" y="1095" width="120" height="60" as="geometry" />
        </mxCell>
        <mxCell id="KKMUDHUGhAtzCMUaufeO-103" style="edgeStyle=orthogonalEdgeStyle;rounded=0;orthogonalLoop=1;jettySize=auto;html=1;exitX=1;exitY=0.5;exitDx=0;exitDy=0;entryX=0.5;entryY=1;entryDx=0;entryDy=0;fontSize=20;strokeWidth=2;" edge="1" parent="1" source="KKMUDHUGhAtzCMUaufeO-81" target="KKMUDHUGhAtzCMUaufeO-74">
          <mxGeometry relative="1" as="geometry" />
        </mxCell>
        <mxCell id="KKMUDHUGhAtzCMUaufeO-81" value="发布成功" style="rounded=0;whiteSpace=wrap;html=1;fontSize=20;" vertex="1" parent="1">
          <mxGeometry x="1289" y="880" width="120" height="60" as="geometry" />
        </mxCell>
        <mxCell id="KKMUDHUGhAtzCMUaufeO-104" style="edgeStyle=orthogonalEdgeStyle;rounded=0;orthogonalLoop=1;jettySize=auto;html=1;exitX=1;exitY=0.5;exitDx=0;exitDy=0;entryX=0.5;entryY=1;entryDx=0;entryDy=0;fontSize=20;strokeWidth=2;" edge="1" parent="1" source="KKMUDHUGhAtzCMUaufeO-82" target="KKMUDHUGhAtzCMUaufeO-74">
          <mxGeometry relative="1" as="geometry" />
        </mxCell>
        <mxCell id="KKMUDHUGhAtzCMUaufeO-82" value="评论点赞转发" style="rounded=0;whiteSpace=wrap;html=1;fontSize=20;" vertex="1" parent="1">
          <mxGeometry x="1289" y="1095" width="120" height="60" as="geometry" />
        </mxCell>
      </root>
    </mxGraphModel>
  </diagram>
</mxfile>
